<svg xmlns="http://www.w3.org/2000/svg" xmlns:xlink="http://www.w3.org/1999/xlink" width="1920" zoomAndPan="magnify" viewBox="0 0 1440 809.999993" height="1080" preserveAspectRatio="xMidYMid meet" version="1.0"><defs><g/><clipPath id="0476b38742"><path d="M 949.757812 169.539062 L 1034.507812 169.539062 L 1034.507812 254.289062 L 949.757812 254.289062 Z M 949.757812 169.539062 " clip-rule="nonzero"/></clipPath></defs><rect x="-144" width="1728" fill="#ffffff" y="-80.999999" height="971.999992" fill-opacity="1"/><rect x="-144" width="1728" fill="#ffffff" y="-80.999999" height="971.999992" fill-opacity="1"/><g clip-path="url(#0476b38742)"><path fill="#147efb" d="M 1028.730469 196.503906 L 1007.542969 196.503906 L 1007.542969 175.316406 C 1007.542969 172.128906 1004.949219 169.539062 1001.765625 169.539062 L 982.503906 169.539062 C 979.316406 169.539062 976.722656 172.128906 976.722656 175.316406 L 976.722656 196.503906 L 955.535156 196.503906 C 952.351562 196.503906 949.757812 199.097656 949.757812 202.28125 L 949.757812 221.542969 C 949.757812 224.730469 952.351562 227.320312 955.535156 227.320312 L 976.722656 227.320312 L 976.722656 248.507812 C 976.722656 251.695312 979.316406 254.289062 982.503906 254.289062 L 1001.765625 254.289062 C 1004.949219 254.289062 1007.542969 251.695312 1007.542969 248.507812 L 1007.542969 227.320312 L 1028.730469 227.320312 C 1031.914062 227.320312 1034.507812 224.730469 1034.507812 221.542969 L 1034.507812 202.28125 C 1034.507812 199.097656 1031.914062 196.503906 1028.730469 196.503906 Z M 1028.730469 196.503906 " fill-opacity="1" fill-rule="nonzero"/></g><g fill="#147efb" fill-opacity="1"><g transform="translate(634.939441, 330.575494)"><g><path d="M 116.03125 0 L 77.84375 0 L 74.46875 -20.125 L 74.28125 -20.6875 L 55.84375 -21.0625 L 40.4375 -20.3125 L 37.234375 0 L 0.375 0 L 37.234375 -121.671875 L 82.734375 -121.671875 Z M 68.640625 -48.140625 L 60.359375 -88 L 58.109375 -88 L 47.578125 -48.140625 L 58.109375 -47.953125 Z M 68.640625 -48.140625 "/></g></g></g><g fill="#147efb" fill-opacity="1"><g transform="translate(752.841289, 330.575494)"><g><path d="M 47.578125 -39.484375 L 49.078125 0 L 11.28125 0 L 13.15625 -35.734375 L 11.28125 -121.671875 L 49.640625 -121.671875 Z M 47.578125 -39.484375 "/></g></g></g><g fill="#147efb" fill-opacity="1"><g transform="translate(814.330773, 330.575494)"><g><path d="M 66.1875 -122.421875 C 84.113281 -122.421875 97.875 -117.5625 107.46875 -107.84375 C 117.0625 -98.125 121.859375 -84.113281 121.859375 -65.8125 C 121.859375 -44.125 116.273438 -27.453125 105.109375 -15.796875 C 93.953125 -4.140625 77.972656 1.6875 57.171875 1.6875 C 44.128906 1.6875 28.832031 1.125 11.28125 0 L 13.15625 -35.734375 L 11.28125 -121.671875 Z M 64.3125 -26.328125 C 70.207031 -26.328125 74.6875 -28.675781 77.75 -33.375 C 80.820312 -38.082031 82.359375 -45.828125 82.359375 -56.609375 C 82.359375 -65.753906 81.734375 -72.957031 80.484375 -78.21875 C 79.234375 -83.488281 77.226562 -87.28125 74.46875 -89.59375 C 71.707031 -91.914062 67.882812 -93.078125 63 -93.078125 C 58.226562 -93.078125 53.523438 -92.828125 48.890625 -92.328125 L 47.578125 -39.484375 L 47.953125 -27.828125 C 55.472656 -26.828125 60.925781 -26.328125 64.3125 -26.328125 Z M 64.3125 -26.328125 "/></g></g></g><g fill="#147efb" fill-opacity="1"><g transform="translate(81.000002, 332.492191)"><g><path d="M 67.265625 -125.734375 C 78.222656 -125.734375 88.539062 -124.015625 98.21875 -120.578125 L 91.71875 -90.203125 L 89.234375 -88.671875 C 85.921875 -90.453125 82.097656 -91.882812 77.765625 -92.96875 C 73.441406 -94.050781 69.429688 -94.59375 65.734375 -94.59375 C 57.960938 -94.59375 52.359375 -92.332031 48.921875 -87.8125 C 45.484375 -83.289062 43.765625 -75.738281 43.765625 -65.15625 C 43.765625 -52.800781 45.738281 -43.789062 49.6875 -38.125 C 53.632812 -32.457031 59.8125 -29.625 68.21875 -29.625 C 71.789062 -29.625 75.769531 -29.972656 80.15625 -30.671875 C 84.550781 -31.367188 88.40625 -32.351562 91.71875 -33.625 L 94.78125 -31.71875 L 91.71875 -1.53125 C 84.082031 0.894531 75.226562 2.109375 65.15625 2.109375 C 44.644531 2.109375 29.195312 -3.238281 18.8125 -13.9375 C 8.4375 -24.644531 3.25 -40.253906 3.25 -60.765625 C 3.25 -81.398438 8.820312 -97.382812 19.96875 -108.71875 C 31.113281 -120.0625 46.878906 -125.734375 67.265625 -125.734375 Z M 67.265625 -125.734375 "/></g></g></g><g fill="#147efb" fill-opacity="1"><g transform="translate(179.215901, 332.492191)"><g><path d="M 86.375 -28.65625 L 84.078125 0 L 10.515625 0 L 12.421875 -36.3125 L 10.515625 -123.640625 L 49.5 -123.640625 L 47.390625 -40.125 L 47.765625 -31.34375 L 84.265625 -31.34375 Z M 86.375 -28.65625 "/></g></g></g><g fill="#147efb" fill-opacity="1"><g transform="translate(265.584758, 332.492191)"><g><path d="M 98.796875 -30.578125 L 100.890625 -27.90625 L 98.609375 0 L 11.46875 0 L 13.375 -36.3125 L 11.46875 -123.640625 L 100.140625 -123.640625 L 102.234375 -120.96875 L 99.75 -93.0625 L 69.359375 -94.203125 L 49.6875 -94.203125 L 49.296875 -76.8125 L 68.21875 -76.8125 L 88.09375 -77.390625 L 90.203125 -74.71875 L 87.90625 -46.8125 L 65.734375 -47.390625 L 48.53125 -47.390625 L 48.34375 -40.125 L 48.734375 -29.421875 L 67.078125 -29.421875 Z M 98.796875 -30.578125 "/></g></g></g><g fill="#147efb" fill-opacity="1"><g transform="translate(368.959867, 332.492191)"><g><path d="M 117.90625 0 L 79.109375 0 L 75.671875 -20.453125 L 75.484375 -21.015625 L 56.75 -21.40625 L 41.078125 -20.640625 L 37.84375 0 L 0.375 0 L 37.84375 -123.640625 L 84.078125 -123.640625 Z M 69.75 -48.921875 L 61.34375 -89.4375 L 59.046875 -89.4375 L 48.34375 -48.921875 L 59.046875 -48.734375 Z M 69.75 -48.921875 "/></g></g></g><g fill="#147efb" fill-opacity="1"><g transform="translate(488.768007, 332.492191)"><g><path d="M 122.109375 -40.328125 L 123.640625 0 L 81.984375 0 L 47.203125 -66.125 L 44.90625 -66.125 L 44.71875 -44.71875 L 46.25 0 L 11.46875 0 L 13.375 -36.3125 L 11.46875 -123.640625 L 53.125 -123.640625 L 87.90625 -57.515625 L 90.203125 -57.515625 L 89.046875 -122.296875 L 124.203125 -124.40625 Z M 122.109375 -40.328125 "/></g></g></g><g fill="#147efb" fill-opacity="1"><g transform="translate(195.934612, 403.544437)"><g><path d="M 17.671875 0.46875 C 14.691406 0.46875 12.066406 -0.148438 9.796875 -1.390625 C 7.523438 -2.628906 5.75 -4.488281 4.46875 -6.96875 C 3.1875 -9.457031 2.546875 -12.519531 2.546875 -16.15625 C 2.546875 -19.800781 3.1875 -22.863281 4.46875 -25.34375 C 5.75 -27.832031 7.523438 -29.695312 9.796875 -30.9375 C 12.066406 -32.175781 14.691406 -32.796875 17.671875 -32.796875 C 20.773438 -32.796875 23.414062 -32.1875 25.59375 -30.96875 C 27.769531 -29.75 29.320312 -27.894531 30.25 -25.40625 L 25.578125 -22.546875 L 25.03125 -22.578125 C 24.332031 -24.253906 23.390625 -25.457031 22.203125 -26.1875 C 21.015625 -26.914062 19.503906 -27.28125 17.671875 -27.28125 C 14.984375 -27.28125 12.882812 -26.390625 11.375 -24.609375 C 9.875 -22.835938 9.125 -20.019531 9.125 -16.15625 C 9.125 -12.3125 9.875 -9.5 11.375 -7.71875 C 12.882812 -5.945312 14.984375 -5.0625 17.671875 -5.0625 C 21.867188 -5.0625 24.4375 -7.101562 25.375 -11.1875 L 25.9375 -11.1875 L 30.640625 -8.734375 C 29.753906 -5.671875 28.242188 -3.367188 26.109375 -1.828125 C 23.972656 -0.296875 21.160156 0.46875 17.671875 0.46875 Z M 17.671875 0.46875 "/></g></g></g><g fill="#147efb" fill-opacity="1"><g transform="translate(227.637461, 403.544437)"><g><path d="M 17.625 0.46875 C 14.65625 0.46875 12.039062 -0.132812 9.78125 -1.34375 C 7.519531 -2.550781 5.75 -4.394531 4.46875 -6.875 C 3.1875 -9.363281 2.546875 -12.457031 2.546875 -16.15625 C 2.546875 -19.863281 3.1875 -22.957031 4.46875 -25.4375 C 5.75 -27.914062 7.519531 -29.757812 9.78125 -30.96875 C 12.039062 -32.1875 14.65625 -32.796875 17.625 -32.796875 C 20.582031 -32.796875 23.1875 -32.191406 25.4375 -30.984375 C 27.695312 -29.785156 29.460938 -27.941406 30.734375 -25.453125 C 32.015625 -22.960938 32.65625 -19.863281 32.65625 -16.15625 C 32.65625 -12.457031 32.015625 -9.363281 30.734375 -6.875 C 29.460938 -4.382812 27.695312 -2.535156 25.4375 -1.328125 C 23.1875 -0.128906 20.582031 0.46875 17.625 0.46875 Z M 17.625 -5.078125 C 20.363281 -5.078125 22.453125 -5.957031 23.890625 -7.71875 C 25.335938 -9.488281 26.0625 -12.300781 26.0625 -16.15625 C 26.0625 -20.019531 25.335938 -22.835938 23.890625 -24.609375 C 22.453125 -26.378906 20.363281 -27.265625 17.625 -27.265625 C 14.863281 -27.265625 12.753906 -26.378906 11.296875 -24.609375 C 9.847656 -22.835938 9.125 -20.019531 9.125 -16.15625 C 9.125 -12.300781 9.847656 -9.488281 11.296875 -7.71875 C 12.753906 -5.957031 14.863281 -5.078125 17.625 -5.078125 Z M 17.625 -5.078125 "/></g></g></g><g fill="#147efb" fill-opacity="1"><g transform="translate(262.855492, 403.544437)"><g><path d="M 10.0625 0 L 4.203125 0 L 4.203125 -32.328125 L 12.5625 -32.328125 L 20.734375 -8.5625 L 21.203125 -8.5625 L 29.34375 -32.328125 L 37.5 -32.328125 L 37.5 0 L 31.4375 0 L 31.4375 -21.359375 L 30.890625 -21.453125 L 23.421875 0 L 18.09375 0 L 10.609375 -21.453125 L 10.0625 -21.359375 Z M 10.0625 0 "/></g></g></g><g fill="#147efb" fill-opacity="1"><g transform="translate(304.57327, 403.544437)"><g><path d="M 10.0625 0 L 4.203125 0 L 4.203125 -32.328125 L 12.5625 -32.328125 L 20.734375 -8.5625 L 21.203125 -8.5625 L 29.34375 -32.328125 L 37.5 -32.328125 L 37.5 0 L 31.4375 0 L 31.4375 -21.359375 L 30.890625 -21.453125 L 23.421875 0 L 18.09375 0 L 10.609375 -21.453125 L 10.0625 -21.359375 Z M 10.0625 0 "/></g></g></g><g fill="#147efb" fill-opacity="1"><g transform="translate(346.291048, 403.544437)"><g><path d="M 10.59375 -14.1875 L 10.59375 -5.34375 L 26.03125 -5.34375 L 26.03125 0 L 4.203125 0 L 4.203125 -32.328125 L 25.671875 -32.328125 L 25.671875 -26.96875 L 10.59375 -26.96875 L 10.59375 -19.40625 L 23.765625 -19.40625 L 23.765625 -14.1875 Z M 10.59375 -14.1875 "/></g></g></g><g fill="#147efb" fill-opacity="1"><g transform="translate(374.080795, 403.544437)"><g><path d="M 4.203125 0 L 4.203125 -32.328125 L 17.171875 -32.328125 C 20.523438 -32.328125 23.050781 -31.554688 24.75 -30.015625 C 26.457031 -28.472656 27.3125 -26.347656 27.3125 -23.640625 C 27.3125 -21.671875 26.8125 -20.0625 25.8125 -18.8125 C 24.820312 -17.5625 23.335938 -16.601562 21.359375 -15.9375 L 21.359375 -15.484375 C 22.378906 -15.035156 23.203125 -14.375 23.828125 -13.5 C 24.453125 -12.632812 25.046875 -11.347656 25.609375 -9.640625 L 28.828125 0 L 22.265625 0 L 19.109375 -9.65625 C 18.773438 -10.632812 18.40625 -11.390625 18 -11.921875 C 17.601562 -12.460938 17.085938 -12.851562 16.453125 -13.09375 C 15.828125 -13.34375 15.015625 -13.46875 14.015625 -13.46875 L 10.59375 -13.46875 L 10.59375 0 Z M 16.40625 -18.53125 C 19.5 -18.53125 21.046875 -19.972656 21.046875 -22.859375 C 21.046875 -25.796875 19.5 -27.265625 16.40625 -27.265625 L 10.59375 -27.265625 L 10.59375 -18.53125 Z M 16.40625 -18.53125 "/></g></g></g><g fill="#147efb" fill-opacity="1"><g transform="translate(404.302421, 403.544437)"><g><path d="M 17.671875 0.46875 C 14.691406 0.46875 12.066406 -0.148438 9.796875 -1.390625 C 7.523438 -2.628906 5.75 -4.488281 4.46875 -6.96875 C 3.1875 -9.457031 2.546875 -12.519531 2.546875 -16.15625 C 2.546875 -19.800781 3.1875 -22.863281 4.46875 -25.34375 C 5.75 -27.832031 7.523438 -29.695312 9.796875 -30.9375 C 12.066406 -32.175781 14.691406 -32.796875 17.671875 -32.796875 C 20.773438 -32.796875 23.414062 -32.1875 25.59375 -30.96875 C 27.769531 -29.75 29.320312 -27.894531 30.25 -25.40625 L 25.578125 -22.546875 L 25.03125 -22.578125 C 24.332031 -24.253906 23.390625 -25.457031 22.203125 -26.1875 C 21.015625 -26.914062 19.503906 -27.28125 17.671875 -27.28125 C 14.984375 -27.28125 12.882812 -26.390625 11.375 -24.609375 C 9.875 -22.835938 9.125 -20.019531 9.125 -16.15625 C 9.125 -12.3125 9.875 -9.5 11.375 -7.71875 C 12.882812 -5.945312 14.984375 -5.0625 17.671875 -5.0625 C 21.867188 -5.0625 24.4375 -7.101562 25.375 -11.1875 L 25.9375 -11.1875 L 30.640625 -8.734375 C 29.753906 -5.671875 28.242188 -3.367188 26.109375 -1.828125 C 23.972656 -0.296875 21.160156 0.46875 17.671875 0.46875 Z M 17.671875 0.46875 "/></g></g></g><g fill="#147efb" fill-opacity="1"><g transform="translate(436.00527, 403.544437)"><g><path d="M 10.59375 0 L 4.203125 0 L 4.203125 -32.328125 L 10.59375 -32.328125 Z M 10.59375 0 "/></g></g></g><g fill="#147efb" fill-opacity="1"><g transform="translate(450.81762, 403.544437)"><g><path d="M 31.015625 0 L 24.296875 0 L 21.859375 -7.453125 L 9.484375 -7.453125 L 7.046875 0 L 0.484375 0 L 11.65625 -32.328125 L 19.859375 -32.328125 Z M 15.359375 -25.578125 L 11.203125 -12.828125 L 20.09375 -12.828125 L 15.921875 -25.578125 Z M 15.359375 -25.578125 "/></g></g></g><g fill="#147efb" fill-opacity="1"><g transform="translate(482.321508, 403.544437)"><g><path d="M 10.59375 -32.328125 L 10.59375 -5.34375 L 25.109375 -5.34375 L 25.109375 0 L 4.203125 0 L 4.203125 -32.328125 Z M 10.59375 -32.328125 "/></g></g></g><g fill="#147efb" fill-opacity="1"><g transform="translate(508.497361, 403.544437)"><g/></g></g><g fill="#147efb" fill-opacity="1"><g transform="translate(519.175529, 403.544437)"><g><path d="M 10.453125 4.625 L 4.40625 4.625 L 4.40625 -34.1875 L 10.453125 -34.1875 Z M 10.453125 4.625 "/></g></g></g><g fill="#147efb" fill-opacity="1"><g transform="translate(534.054213, 403.544437)"><g/></g></g><g fill="#147efb" fill-opacity="1"><g transform="translate(544.732381, 403.544437)"><g><path d="M 4.203125 0 L 4.203125 -32.328125 L 17.171875 -32.328125 C 20.523438 -32.328125 23.050781 -31.554688 24.75 -30.015625 C 26.457031 -28.472656 27.3125 -26.347656 27.3125 -23.640625 C 27.3125 -21.671875 26.8125 -20.0625 25.8125 -18.8125 C 24.820312 -17.5625 23.335938 -16.601562 21.359375 -15.9375 L 21.359375 -15.484375 C 22.378906 -15.035156 23.203125 -14.375 23.828125 -13.5 C 24.453125 -12.632812 25.046875 -11.347656 25.609375 -9.640625 L 28.828125 0 L 22.265625 0 L 19.109375 -9.65625 C 18.773438 -10.632812 18.40625 -11.390625 18 -11.921875 C 17.601562 -12.460938 17.085938 -12.851562 16.453125 -13.09375 C 15.828125 -13.34375 15.015625 -13.46875 14.015625 -13.46875 L 10.59375 -13.46875 L 10.59375 0 Z M 16.40625 -18.53125 C 19.5 -18.53125 21.046875 -19.972656 21.046875 -22.859375 C 21.046875 -25.796875 19.5 -27.265625 16.40625 -27.265625 L 10.59375 -27.265625 L 10.59375 -18.53125 Z M 16.40625 -18.53125 "/></g></g></g><g fill="#147efb" fill-opacity="1"><g transform="translate(574.953985, 403.544437)"><g><path d="M 10.59375 -14.1875 L 10.59375 -5.34375 L 26.03125 -5.34375 L 26.03125 0 L 4.203125 0 L 4.203125 -32.328125 L 25.671875 -32.328125 L 25.671875 -26.96875 L 10.59375 -26.96875 L 10.59375 -19.40625 L 23.765625 -19.40625 L 23.765625 -14.1875 Z M 10.59375 -14.1875 "/></g></g></g><g fill="#147efb" fill-opacity="1"><g transform="translate(602.743754, 403.544437)"><g><path d="M 14.328125 0.46875 C 12.085938 0.46875 10.09375 0.191406 8.34375 -0.359375 C 6.59375 -0.910156 5.132812 -1.632812 3.96875 -2.53125 C 2.8125 -3.4375 1.921875 -4.425781 1.296875 -5.5 L 4.8125 -9.796875 L 5.375 -9.796875 C 6.34375 -8.347656 7.578125 -7.195312 9.078125 -6.34375 C 10.578125 -5.488281 12.328125 -5.0625 14.328125 -5.0625 C 16.035156 -5.0625 17.320312 -5.421875 18.1875 -6.140625 C 19.0625 -6.867188 19.5 -7.863281 19.5 -9.125 C 19.5 -9.894531 19.359375 -10.535156 19.078125 -11.046875 C 18.796875 -11.566406 18.332031 -12.007812 17.6875 -12.375 C 17.039062 -12.75 16.164062 -13.066406 15.0625 -13.328125 L 10.90625 -14.28125 C 8 -14.945312 5.832031 -16.050781 4.40625 -17.59375 C 2.988281 -19.132812 2.28125 -21.132812 2.28125 -23.59375 C 2.28125 -25.414062 2.734375 -27.019531 3.640625 -28.40625 C 4.554688 -29.789062 5.890625 -30.867188 7.640625 -31.640625 C 9.390625 -32.410156 11.476562 -32.796875 13.90625 -32.796875 C 16.394531 -32.796875 18.523438 -32.46875 20.296875 -31.8125 C 22.078125 -31.15625 23.582031 -30.144531 24.8125 -28.78125 L 21.640625 -24.453125 L 21.09375 -24.453125 C 20.175781 -25.410156 19.128906 -26.128906 17.953125 -26.609375 C 16.773438 -27.085938 15.425781 -27.328125 13.90625 -27.328125 C 12.15625 -27.328125 10.820312 -27.015625 9.90625 -26.390625 C 8.988281 -25.773438 8.53125 -24.921875 8.53125 -23.828125 C 8.53125 -22.816406 8.847656 -22.007812 9.484375 -21.40625 C 10.128906 -20.800781 11.242188 -20.328125 12.828125 -19.984375 L 17.0625 -19.109375 C 20.207031 -18.441406 22.488281 -17.316406 23.90625 -15.734375 C 25.320312 -14.148438 26.03125 -12.082031 26.03125 -9.53125 C 26.03125 -7.507812 25.59375 -5.75 24.71875 -4.25 C 23.851562 -2.757812 22.539062 -1.597656 20.78125 -0.765625 C 19.03125 0.0546875 16.878906 0.46875 14.328125 0.46875 Z M 14.328125 0.46875 "/></g></g></g><g fill="#147efb" fill-opacity="1"><g transform="translate(630.511383, 403.544437)"><g><path d="M 10.59375 0 L 4.203125 0 L 4.203125 -32.328125 L 10.59375 -32.328125 Z M 10.59375 0 "/></g></g></g><g fill="#147efb" fill-opacity="1"><g transform="translate(645.323754, 403.544437)"><g><path d="M 15.828125 -32.328125 C 21.078125 -32.328125 25.082031 -30.96875 27.84375 -28.25 C 30.613281 -25.539062 32 -21.507812 32 -16.15625 C 32 -10.820312 30.613281 -6.796875 27.84375 -4.078125 C 25.082031 -1.359375 21.078125 0 15.828125 0 L 4.203125 0 L 4.203125 -32.328125 Z M 15.453125 -5.375 C 18.785156 -5.375 21.273438 -6.222656 22.921875 -7.921875 C 24.578125 -9.628906 25.40625 -12.375 25.40625 -16.15625 C 25.40625 -19.945312 24.578125 -22.691406 22.921875 -24.390625 C 21.273438 -26.097656 18.785156 -26.953125 15.453125 -26.953125 L 10.59375 -26.953125 L 10.59375 -5.375 Z M 15.453125 -5.375 "/></g></g></g><g fill="#147efb" fill-opacity="1"><g transform="translate(679.878546, 403.544437)"><g><path d="M 10.59375 -14.1875 L 10.59375 -5.34375 L 26.03125 -5.34375 L 26.03125 0 L 4.203125 0 L 4.203125 -32.328125 L 25.671875 -32.328125 L 25.671875 -26.96875 L 10.59375 -26.96875 L 10.59375 -19.40625 L 23.765625 -19.40625 L 23.765625 -14.1875 Z M 10.59375 -14.1875 "/></g></g></g><g fill="#147efb" fill-opacity="1"><g transform="translate(707.668315, 403.544437)"><g><path d="M 10.390625 0 L 4.203125 0 L 4.203125 -32.328125 L 11.515625 -32.328125 L 24.5 -11.5 L 25.078125 -11.578125 L 25.078125 -32.328125 L 31.21875 -32.328125 L 31.21875 0 L 24.671875 0 L 10.9375 -22.25 L 10.390625 -22.15625 Z M 10.390625 0 "/></g></g></g><g fill="#147efb" fill-opacity="1"><g transform="translate(743.107425, 403.544437)"><g><path d="M 25.90625 -32.328125 L 25.90625 -26.953125 L 16.578125 -26.953125 L 16.578125 0 L 10.21875 0 L 10.21875 -26.953125 L 0.890625 -26.953125 L 0.890625 -32.328125 Z M 25.90625 -32.328125 "/></g></g></g><g fill="#147efb" fill-opacity="1"><g transform="translate(769.902301, 403.544437)"><g><path d="M 10.59375 0 L 4.203125 0 L 4.203125 -32.328125 L 10.59375 -32.328125 Z M 10.59375 0 "/></g></g></g><g fill="#147efb" fill-opacity="1"><g transform="translate(784.714629, 403.544437)"><g><path d="M 31.015625 0 L 24.296875 0 L 21.859375 -7.453125 L 9.484375 -7.453125 L 7.046875 0 L 0.484375 0 L 11.65625 -32.328125 L 19.859375 -32.328125 Z M 15.359375 -25.578125 L 11.203125 -12.828125 L 20.09375 -12.828125 L 15.921875 -25.578125 Z M 15.359375 -25.578125 "/></g></g></g><g fill="#147efb" fill-opacity="1"><g transform="translate(816.21854, 403.544437)"><g><path d="M 10.59375 -32.328125 L 10.59375 -5.34375 L 25.109375 -5.34375 L 25.109375 0 L 4.203125 0 L 4.203125 -32.328125 Z M 10.59375 -32.328125 "/></g></g></g><g fill="#147efb" fill-opacity="1"><g transform="translate(231.168364, 467.087606)"><g><path d="M 4.203125 0 L 4.203125 -32.328125 L 18 -32.328125 C 19.988281 -32.328125 21.671875 -32.015625 23.046875 -31.390625 C 24.421875 -30.765625 25.460938 -29.867188 26.171875 -28.703125 C 26.878906 -27.546875 27.234375 -26.179688 27.234375 -24.609375 C 27.234375 -23.179688 26.882812 -21.921875 26.1875 -20.828125 C 25.5 -19.734375 24.507812 -18.859375 23.21875 -18.203125 L 23.21875 -17.734375 C 25.25 -17.203125 26.816406 -16.234375 27.921875 -14.828125 C 29.023438 -13.429688 29.578125 -11.71875 29.578125 -9.6875 C 29.578125 -6.59375 28.644531 -4.203125 26.78125 -2.515625 C 24.914062 -0.835938 22.148438 0 18.484375 0 Z M 16.671875 -19.4375 C 19.648438 -19.4375 21.140625 -20.773438 21.140625 -23.453125 C 21.140625 -24.828125 20.769531 -25.847656 20.03125 -26.515625 C 19.289062 -27.191406 18.171875 -27.53125 16.671875 -27.53125 L 10.59375 -27.53125 L 10.59375 -19.4375 Z M 17.84375 -5.0625 C 21.363281 -5.0625 23.125 -6.660156 23.125 -9.859375 C 23.125 -13.078125 21.363281 -14.6875 17.84375 -14.6875 L 10.59375 -14.6875 L 10.59375 -5.0625 Z M 17.84375 -5.0625 "/></g></g></g><g fill="#147efb" fill-opacity="1"><g transform="translate(262.782783, 467.087606)"><g><path d="M 17.140625 0.46875 C 12.679688 0.46875 9.375 -0.585938 7.21875 -2.703125 C 5.070312 -4.816406 4 -7.953125 4 -12.109375 L 4 -32.328125 L 10.265625 -32.328125 L 10.265625 -12.15625 C 10.265625 -9.800781 10.828125 -8.03125 11.953125 -6.84375 C 13.085938 -5.664062 14.816406 -5.078125 17.140625 -5.078125 C 21.722656 -5.078125 24.015625 -7.4375 24.015625 -12.15625 L 24.015625 -32.328125 L 30.265625 -32.328125 L 30.265625 -12.109375 C 30.265625 -7.953125 29.1875 -4.816406 27.03125 -2.703125 C 24.882812 -0.585938 21.585938 0.46875 17.140625 0.46875 Z M 17.140625 0.46875 "/></g></g></g><g fill="#147efb" fill-opacity="1"><g transform="translate(297.050159, 467.087606)"><g><path d="M 10.59375 0 L 4.203125 0 L 4.203125 -32.328125 L 10.59375 -32.328125 Z M 10.59375 0 "/></g></g></g><g fill="#147efb" fill-opacity="1"><g transform="translate(311.862509, 467.087606)"><g><path d="M 10.59375 -32.328125 L 10.59375 -5.34375 L 25.109375 -5.34375 L 25.109375 0 L 4.203125 0 L 4.203125 -32.328125 Z M 10.59375 -32.328125 "/></g></g></g><g fill="#147efb" fill-opacity="1"><g transform="translate(338.038362, 467.087606)"><g><path d="M 15.828125 -32.328125 C 21.078125 -32.328125 25.082031 -30.96875 27.84375 -28.25 C 30.613281 -25.539062 32 -21.507812 32 -16.15625 C 32 -10.820312 30.613281 -6.796875 27.84375 -4.078125 C 25.082031 -1.359375 21.078125 0 15.828125 0 L 4.203125 0 L 4.203125 -32.328125 Z M 15.453125 -5.375 C 18.785156 -5.375 21.273438 -6.222656 22.921875 -7.921875 C 24.578125 -9.628906 25.40625 -12.375 25.40625 -16.15625 C 25.40625 -19.945312 24.578125 -22.691406 22.921875 -24.390625 C 21.273438 -26.097656 18.785156 -26.953125 15.453125 -26.953125 L 10.59375 -26.953125 L 10.59375 -5.375 Z M 15.453125 -5.375 "/></g></g></g><g fill="#147efb" fill-opacity="1"><g transform="translate(372.593153, 467.087606)"><g><path d="M 10.59375 0 L 4.203125 0 L 4.203125 -32.328125 L 10.59375 -32.328125 Z M 10.59375 0 "/></g></g></g><g fill="#147efb" fill-opacity="1"><g transform="translate(387.405503, 467.087606)"><g><path d="M 10.390625 0 L 4.203125 0 L 4.203125 -32.328125 L 11.515625 -32.328125 L 24.5 -11.5 L 25.078125 -11.578125 L 25.078125 -32.328125 L 31.21875 -32.328125 L 31.21875 0 L 24.671875 0 L 10.9375 -22.25 L 10.390625 -22.15625 Z M 10.390625 0 "/></g></g></g><g fill="#147efb" fill-opacity="1"><g transform="translate(422.844613, 467.087606)"><g><path d="M 15.703125 0.46875 C 13.003906 0.46875 10.671875 -0.144531 8.703125 -1.375 C 6.734375 -2.613281 5.210938 -4.472656 4.140625 -6.953125 C 3.078125 -9.429688 2.546875 -12.5 2.546875 -16.15625 C 2.546875 -19.84375 3.1875 -22.925781 4.46875 -25.40625 C 5.75 -27.894531 7.523438 -29.75 9.796875 -30.96875 C 12.078125 -32.1875 14.722656 -32.796875 17.734375 -32.796875 C 20.828125 -32.796875 23.460938 -32.21875 25.640625 -31.0625 C 27.828125 -29.914062 29.363281 -28.207031 30.25 -25.9375 L 25.578125 -23.109375 L 25.03125 -23.125 C 24.363281 -24.570312 23.425781 -25.625 22.21875 -26.28125 C 21.019531 -26.945312 19.523438 -27.28125 17.734375 -27.28125 C 14.941406 -27.28125 12.804688 -26.398438 11.328125 -24.640625 C 9.859375 -22.878906 9.125 -20.050781 9.125 -16.15625 C 9.125 -12.25 9.8125 -9.410156 11.1875 -7.640625 C 12.570312 -5.878906 14.613281 -5 17.3125 -5 C 19.644531 -5 21.363281 -5.519531 22.46875 -6.5625 C 23.570312 -7.613281 24.125 -9.175781 24.125 -11.25 L 24.125 -12.640625 L 16.46875 -12.640625 L 16.46875 -17.84375 L 30.46875 -17.84375 L 30.46875 0 L 24.359375 0 L 24.359375 -4.328125 L 23.90625 -4.40625 C 23.238281 -2.851562 22.226562 -1.648438 20.875 -0.796875 C 19.53125 0.046875 17.804688 0.46875 15.703125 0.46875 Z M 15.703125 0.46875 "/></g></g></g><g fill="#147efb" fill-opacity="1"><g transform="translate(456.5593, 467.087606)"><g/></g></g><g fill="#147efb" fill-opacity="1"><g transform="translate(467.237468, 467.087606)"><g><path d="M 10.0625 0 L 4.203125 0 L 4.203125 -32.328125 L 12.5625 -32.328125 L 20.734375 -8.5625 L 21.203125 -8.5625 L 29.34375 -32.328125 L 37.5 -32.328125 L 37.5 0 L 31.4375 0 L 31.4375 -21.359375 L 30.890625 -21.453125 L 23.421875 0 L 18.09375 0 L 10.609375 -21.453125 L 10.0625 -21.359375 Z M 10.0625 0 "/></g></g></g><g fill="#147efb" fill-opacity="1"><g transform="translate(508.955246, 467.087606)"><g><path d="M 31.015625 0 L 24.296875 0 L 21.859375 -7.453125 L 9.484375 -7.453125 L 7.046875 0 L 0.484375 0 L 11.65625 -32.328125 L 19.859375 -32.328125 Z M 15.359375 -25.578125 L 11.203125 -12.828125 L 20.09375 -12.828125 L 15.921875 -25.578125 Z M 15.359375 -25.578125 "/></g></g></g><g fill="#147efb" fill-opacity="1"><g transform="translate(540.459134, 467.087606)"><g><path d="M 10.59375 0 L 4.203125 0 L 4.203125 -32.328125 L 10.59375 -32.328125 Z M 10.59375 0 "/></g></g></g><g fill="#147efb" fill-opacity="1"><g transform="translate(555.271484, 467.087606)"><g><path d="M 10.390625 0 L 4.203125 0 L 4.203125 -32.328125 L 11.515625 -32.328125 L 24.5 -11.5 L 25.078125 -11.578125 L 25.078125 -32.328125 L 31.21875 -32.328125 L 31.21875 0 L 24.671875 0 L 10.9375 -22.25 L 10.390625 -22.15625 Z M 10.390625 0 "/></g></g></g><g fill="#147efb" fill-opacity="1"><g transform="translate(590.710594, 467.087606)"><g><path d="M 25.90625 -32.328125 L 25.90625 -26.953125 L 16.578125 -26.953125 L 16.578125 0 L 10.21875 0 L 10.21875 -26.953125 L 0.890625 -26.953125 L 0.890625 -32.328125 Z M 25.90625 -32.328125 "/></g></g></g><g fill="#147efb" fill-opacity="1"><g transform="translate(617.505493, 467.087606)"><g><path d="M 10.59375 -14.1875 L 10.59375 -5.34375 L 26.03125 -5.34375 L 26.03125 0 L 4.203125 0 L 4.203125 -32.328125 L 25.671875 -32.328125 L 25.671875 -26.96875 L 10.59375 -26.96875 L 10.59375 -19.40625 L 23.765625 -19.40625 L 23.765625 -14.1875 Z M 10.59375 -14.1875 "/></g></g></g><g fill="#147efb" fill-opacity="1"><g transform="translate(645.295262, 467.087606)"><g><path d="M 10.390625 0 L 4.203125 0 L 4.203125 -32.328125 L 11.515625 -32.328125 L 24.5 -11.5 L 25.078125 -11.578125 L 25.078125 -32.328125 L 31.21875 -32.328125 L 31.21875 0 L 24.671875 0 L 10.9375 -22.25 L 10.390625 -22.15625 Z M 10.390625 0 "/></g></g></g><g fill="#147efb" fill-opacity="1"><g transform="translate(680.734372, 467.087606)"><g><path d="M 31.015625 0 L 24.296875 0 L 21.859375 -7.453125 L 9.484375 -7.453125 L 7.046875 0 L 0.484375 0 L 11.65625 -32.328125 L 19.859375 -32.328125 Z M 15.359375 -25.578125 L 11.203125 -12.828125 L 20.09375 -12.828125 L 15.921875 -25.578125 Z M 15.359375 -25.578125 "/></g></g></g><g fill="#147efb" fill-opacity="1"><g transform="translate(712.238284, 467.087606)"><g><path d="M 10.390625 0 L 4.203125 0 L 4.203125 -32.328125 L 11.515625 -32.328125 L 24.5 -11.5 L 25.078125 -11.578125 L 25.078125 -32.328125 L 31.21875 -32.328125 L 31.21875 0 L 24.671875 0 L 10.9375 -22.25 L 10.390625 -22.15625 Z M 10.390625 0 "/></g></g></g><g fill="#147efb" fill-opacity="1"><g transform="translate(747.677394, 467.087606)"><g><path d="M 17.671875 0.46875 C 14.691406 0.46875 12.066406 -0.148438 9.796875 -1.390625 C 7.523438 -2.628906 5.75 -4.488281 4.46875 -6.96875 C 3.1875 -9.457031 2.546875 -12.519531 2.546875 -16.15625 C 2.546875 -19.800781 3.1875 -22.863281 4.46875 -25.34375 C 5.75 -27.832031 7.523438 -29.695312 9.796875 -30.9375 C 12.066406 -32.175781 14.691406 -32.796875 17.671875 -32.796875 C 20.773438 -32.796875 23.414062 -32.1875 25.59375 -30.96875 C 27.769531 -29.75 29.320312 -27.894531 30.25 -25.40625 L 25.578125 -22.546875 L 25.03125 -22.578125 C 24.332031 -24.253906 23.390625 -25.457031 22.203125 -26.1875 C 21.015625 -26.914062 19.503906 -27.28125 17.671875 -27.28125 C 14.984375 -27.28125 12.882812 -26.390625 11.375 -24.609375 C 9.875 -22.835938 9.125 -20.019531 9.125 -16.15625 C 9.125 -12.3125 9.875 -9.5 11.375 -7.71875 C 12.882812 -5.945312 14.984375 -5.0625 17.671875 -5.0625 C 21.867188 -5.0625 24.4375 -7.101562 25.375 -11.1875 L 25.9375 -11.1875 L 30.640625 -8.734375 C 29.753906 -5.671875 28.242188 -3.367188 26.109375 -1.828125 C 23.972656 -0.296875 21.160156 0.46875 17.671875 0.46875 Z M 17.671875 0.46875 "/></g></g></g><g fill="#147efb" fill-opacity="1"><g transform="translate(779.380222, 467.087606)"><g><path d="M 10.59375 -14.1875 L 10.59375 -5.34375 L 26.03125 -5.34375 L 26.03125 0 L 4.203125 0 L 4.203125 -32.328125 L 25.671875 -32.328125 L 25.671875 -26.96875 L 10.59375 -26.96875 L 10.59375 -19.40625 L 23.765625 -19.40625 L 23.765625 -14.1875 Z M 10.59375 -14.1875 "/></g></g></g></svg>